<svg width="48" height="28" viewBox="0 0 48 28" fill="none" xmlns="http://www.w3.org/2000/svg">
<path d="M6.11104 15.834L14.9206 24.8821C15.2801 25.2514 15.4527 25.6822 15.4383 26.1746C15.424 26.667 15.2364 27.0979 14.8756 27.4672C14.516 27.8057 14.0965 27.983 13.6171 27.999C13.1377 28.015 12.7182 27.8377 12.3586 27.4672L0.492725 15.2801C0.312939 15.0954 0.185291 14.8954 0.109781 14.68C0.0342706 14.4645 -0.00228572 14.2337 0.000111416 13.9875C0.00250855 13.7413 0.0402631 13.5105 0.113376 13.2951C0.186489 13.0796 0.313539 12.8796 0.494523 12.6949L12.3604 0.507796C12.69 0.169264 13.1023 -7.28964e-07 13.5973 -7.56505e-07C14.0923 -7.84045e-07 14.519 0.169264 14.8774 0.507796C15.237 0.877103 15.4168 1.31596 15.4168 1.82438C15.4168 2.33279 15.237 2.77103 14.8774 3.13911L6.11104 12.141L46.2021 12.141C46.7115 12.141 47.1388 12.3182 47.484 12.6728C47.8292 13.0273 48.0012 13.4655 48 13.9875C47.9988 14.5095 47.8262 14.9483 47.4822 15.3041C47.1382 15.6598 46.7115 15.8365 46.2021 15.834L6.11104 15.834Z" fill="#077C6E"/>
</svg>
