<svg width="70" height="70" viewBox="0 0 70 70" fill="none" xmlns="http://www.w3.org/2000/svg">
<path d="M56 56C57.8565 56 59.637 56.7375 60.9497 58.0503C62.2625 59.363 63 61.1435 63 63C63 64.8565 62.2625 66.637 60.9497 67.9497C59.637 69.2625 57.8565 70 56 70C54.1435 70 52.363 69.2625 51.0503 67.9497C49.7375 66.637 49 64.8565 49 63C49 59.115 52.115 56 56 56ZM0 0H11.445L14.735 7H66.5C67.4283 7 68.3185 7.36875 68.9749 8.02513C69.6313 8.6815 70 9.57174 70 10.5C70 11.095 69.825 11.69 69.58 12.25L57.05 34.895C55.86 37.03 53.55 38.5 50.925 38.5H24.85L21.7 44.205L21.595 44.625C21.595 44.8571 21.6872 45.0796 21.8513 45.2437C22.0154 45.4078 22.2379 45.5 22.47 45.5H63V52.5H21C19.1435 52.5 17.363 51.7625 16.0503 50.4497C14.7375 49.137 14 47.3565 14 45.5C14 44.275 14.315 43.12 14.84 42.14L19.6 33.565L7 7H0V0ZM21 56C22.8565 56 24.637 56.7375 25.9497 58.0503C27.2625 59.363 28 61.1435 28 63C28 64.8565 27.2625 66.637 25.9497 67.9497C24.637 69.2625 22.8565 70 21 70C19.1435 70 17.363 69.2625 16.0503 67.9497C14.7375 66.637 14 64.8565 14 63C14 59.115 17.115 56 21 56ZM52.5 31.5L62.23 14H17.99L26.25 31.5H52.5Z" fill="#077C6E"/>
<path d="M52.5 31.5L62.23 14H17.99L26.25 31.5H52.5Z" fill="white" fill-opacity="0.5"/>
</svg>
