<svg width="60" height="60" viewBox="0 0 60 60" fill="none" xmlns="http://www.w3.org/2000/svg">
<path d="M58.83 4.39454e-05C58.4718 4.39454e-05 58.0387 0.101294 57.5343 0.315044L1.59747 24.0507C-0.416276 24.9057 -0.543776 26.5519 1.31435 27.7088L17.1206 37.5544C18.9787 38.7113 21.435 41.1919 22.5806 43.065L32.055 58.5788C32.5987 59.4675 33.255 59.91 33.8868 59.91C34.5843 59.91 35.25 59.3738 35.7056 58.3144L59.6268 2.43004C60.2737 0.915044 59.9043 4.39454e-05 58.8281 -0.00183105L58.83 4.39454e-05ZM19.0762 34.215L6.26435 26.2332L49.2487 7.99692L21.5812 36.1332C20.7356 35.3832 19.8787 34.7138 19.0762 34.215ZM33.5587 53.6288L25.9162 41.1188C25.4643 40.38 24.87 39.5925 24.2062 38.8107L52.0031 10.545L33.5587 53.6288Z" fill="#202020"/>
<path d="M33.5587 53.6288L25.9162 41.1188C25.4643 40.38 24.87 39.5925 24.2062 38.8107L52.0031 10.545L33.5587 53.6288Z" fill="white" fill-opacity="0.7"/>
<path d="M19.0762 34.215L6.26435 26.2332L49.2487 7.99692L21.5812 36.1332C20.7356 35.3832 19.8787 34.7138 19.0762 34.215Z" fill="white" fill-opacity="0.7"/>
</svg>
